# AST/ASF file generated using VICON BodyLanguage
# -----------------------------------------------
:version 1.10
:name VICON
:units
  mass 1.0
  length 0.45
  angle deg
:documentation
   .ast/.asf automatically generated from VICON data using
   VICON BodyBuilder and BodyLanguage model FoxedUp or BRILLIANT.MOD
:root
   order TX TY TZ RX RY RZ
   axis XYZ
   position 0 0 0  
   orientation 0 0 0 
:bonedata
  begin
     id 1 
     name lhipjoint
     direction 0.521452 -0.77106 0.36545 
     length 2.0933 
     axis 0 0 0  XYZ
  end
  begin
     id 2 
     name lfemur
     direction 0.34202 -0.939693 0  
     length 6.83441  
     axis 0 0 20  XYZ
    dof rx ry rz
    limits (-160.0 20.0)
           (-70.0 70.0)
           (-60.0 70.0)
  end
  begin
     id 3 
     name ltibia
     direction 0.34202 -0.939693 0   
     length 7.28749   
     axis 0 0 20   XYZ
    dof rx
    limits (-10.0 170.0)
  end
  begin
     id 4 
     name lfoot
     direction 0.100608 -0.276418 0.955757   
     length 1.52195   
     axis -90 7.62852e-016 20   XYZ
    dof rx rz
    limits (-45.0 90.0)
           (-70.0 20.0)
  end
  begin
     id 5 
     name ltoes
     direction 1.53558e-011 -4.21907e-011 1   
     length 0.770459   
     axis -90 7.62852e-016 20   XYZ
    dof rx
    limits (-90.0 20.0)
  end
  begin
     id 6 
     name rhipjoint
     direction -0.488071 -0.788702 0.373812   
     length 2.04648  
     axis 0 0 0  XYZ 
  end
  begin
     id 7 
     name rfemur
     direction -0.34202 -0.939693 0   
     length 6.92583   
     axis 0 0 -20   XYZ
    dof rx ry rz
    limits (-160.0 20.0)
           (-70.0 70.0)
           (-70.0 60.0)
  end
  begin
     id 8 
     name rtibia
     direction -0.34202 -0.939693 0   
     length 7.41043   
     axis 0 0 -20   XYZ
    dof rx
    limits (-10.0 170.0)
 end
 begin
     id 9 
     name rfoot
     direction -0.0784433 -0.215521 0.973343   
     length 1.67708  
     axis -90 -7.62852e-016 -20   XYZ
    dof rx rz
    limits (-45.0 90.0)
           (-20.0 70.0)
  end
  begin
     id 10 
     name rtoes
     direction -1.53551e-011 -4.21842e-011 1   
     length 0.849787   
     axis -90 -7.62852e-016 -20   XYZ
    dof rx
    limits (-90.0 20.0)
  end
  begin
     id 11 
     name lowerback
     direction -0.0122332 0.997575 -0.0685192   
     length 1.98724   
     axis 0 0 0   XYZ
    dof rx ry rz
    limits (-20.0 45.0)
           (-30.0 30.0)
           (-30.0 30.0)
  end
  begin
     id 12 
     name upperback
     direction 0.0182347 0.999724 -0.0148421   
     length 1.99029   
     axis 0 0 0   XYZ
    dof rx ry rz
    limits (-20.0 45.0)
           (-30.0 30.0)
           (-30.0 30.0)
  end
  begin
     id 13 
     name thorax
     direction 0.0242908 0.99956 0.0170184   
     length 1.99573   
     axis 0 0 0   XYZ
    dof rx ry rz
    limits (-20.0 45.0)
           (-30.0 30.0)
           (-30.0 30.0)
  end
  begin
     id 14 
     name lowerneck
     direction 0.0654488 0.985533 0.156338   
     length 1.4285   
     axis 0 0 0   XYZ
    dof rx ry rz
    limits (-20.0 45.0)
           (-30.0 30.0)
           (-30.0 30.0)
  end
  begin
     id 15 
     name upperneck
     direction -0.02953 0.998556 -0.0448842   
     length 1.44709   
     axis 0 0 0   XYZ
    dof rx ry rz
    limits (-20.0 45.0)
           (-30.0 30.0)
           (-30.0 30.0)
  end
  begin
     id 16
     name head
     direction -0.0155588 0.999386 -0.0314063  
     length 1.44689  
     axis 0 0 0   XYZ
    dof rx ry rz
    limits (-20.0 45.0)
           (-30.0 30.0)
           (-30.0 30.0)
  end
  begin
     id 17 
     name lclavicle
     direction 0.968229 0.236071 -0.0824755  
     length 3.60593  
     axis 0 0 0   XYZ
    dof ry rz
    limits (-20.0 10.0)
           (0.0 20.0)
  end
  begin
     id 18 
     name lhumerus
     direction 1 -4.48968e-011 7.8138e-029   
     length 5.06035   
     axis 180 -30 -90   XYZ
    dof rx ry rz
    limits (-60.0 90.0)
           (-90.0 90.0)
           (-90.0 90.0)
  end
  begin
     id 19
     name lradius
     direction 1 -4.48967e-011 9.02887e-028   
     length 3.1478   
     axis 180 -30 -90   XYZ
    dof rx
    limits (-10.0 170.0)
  end
  begin
     id 20
     name lwrist
     direction 1 -4.48961e-011 7.20928e-028   
     length 1.5739   
     axis -5.52449e-016 90 90   XYZ
    dof ry
    limits (-180.0 0.0)
 end
  begin
     id 21 
     name lhand
     direction 1 -4.48972e-011 1.44186e-027   
     length 0.606747   
     axis -9.20027e-016 90 90   XYZ
    dof rx rz
    limits (-90.0 90.0)
           (-45.0 45.0)
  end
  begin
     id 22 
     name lfingers
     direction 1 -4.48943e-011 2.88371e-027   
     length 0.489175   
     axis -1.84005e-015 90 90   XYZ
    dof rx
    limits (0.0 90.0)
  end
  begin
     id 23
     name lthumb
     direction 0.707107 -6.34917e-011 0.707107   
     length 0.70236   
     axis -90 45 2.85299e-015   XYZ
    dof rx rz
    limits (-45.0 45.0)
           (-45.0 45.0)
  end
  begin
     id 24 
     name rclavicle
     direction -0.978165 0.207816 0.0022268   
     length 3.35425  
     axis 0 0 0   XYZ 
    dof ry rz
    limits (-10.0 20.0)
           (-20.0 0.0)
  end
  begin
     id 25 
     name rhumerus
     direction -1 -4.48964e-011 -4.02159e-027  
     length 5.12273   
     axis 180 30 90   XYZ
    dof rx ry rz
    limits (-90.0 60.0)
           (-90.0 90.0)
           (-90.0 90.0)
  end
  begin
     id 26 
     name rradius
     direction -1 -4.48966e-011 1.62746e-027   
     length 3.422   
     axis 180 30 90   XYZ
    dof rx
    limits (-10.0 170.0)
  end
  begin
     id 27 
     name rwrist
     direction -1 -4.4896e-011 7.20928e-028   
     length 1.711   
     axis -5.52449e-016 -90 -90   XYZ
    dof ry
    limits (-180.0 0.0)
  end
  begin
     id 28
     name rhand
     direction -1 -4.48979e-011 1.44186e-027   
     length 0.704599   
     axis -9.20027e-016 -90 -90   XYZ
    dof rx rz
    limits (-90.0 90.0)
           (-45.0 45.0)
  end
  begin
     id 29
     name rfingers
     direction -1 -4.48962e-011 2.88371e-027   
     length 0.568066   
     axis -1.84005e-015 -90 -90   XYZ
    dof rx
    limits (0.0 90.0)
  end
  begin
     id 30
     name rthumb
     direction -0.707107 -6.34949e-011 0.707107   
     length 0.815633   
     axis -90 -45 -2.85299e-015   XYZ
    dof rx rz
    limits (-45.0 45.0)
           (-45.0 45.0)
  end
:hierarchy
  begin
    root lhipjoint rhipjoint lowerback
    lhipjoint lfemur
    lfemur ltibia
    ltibia lfoot
    lfoot ltoes
    rhipjoint rfemur
    rfemur rtibia
    rtibia rfoot
    rfoot rtoes
    lowerback upperback
    upperback thorax
    thorax lowerneck lclavicle rclavicle
    lowerneck upperneck
    upperneck head
    lclavicle lhumerus
    lhumerus lradius
    lradius lwrist
    lwrist lhand lthumb
    lhand lfingers
    rclavicle rhumerus
    rhumerus rradius
    rradius rwrist
    rwrist rhand rthumb
    rhand rfingers
  end

#!OML:ASF E:\id_vita\Project 1\Capture day 1\Session 1\Male1.ASF
:FULLY-SPECIFIED
:DEGREES
22
root -23.255 16.0202 3.50534 -177.213 0.51671 -180.24
lowerback -5.51751 1.01525 -5.70208
upperback -0.437805 1.76976 -0.483789
thorax 2.48826 0.845728 2.83177
lowerneck -1.1434 1.85701 8.02865
upperneck -14.7386 1.7052 0.160406
head -4.63128 -0.0561941 -1.38661
rclavicle 2.1534e-014 -1.59028e-014
rhumerus -28.8062 -27.3095 -80.3235
rradius 14.5346
rwrist 24.1197
rhand -13.5721 25.9723
rfingers 7.12502
rthumb 12.5417 -3.63126
lclavicle 2.1534e-014 -1.59028e-014
lhumerus -28.2231 36.6418 71.9447
lradius 9.67648
lwrist -28.7212
lhand -10.4035 45.8595
lfingers 7.12502
lthumb 15.595 75.2508
rfemur -5.14752 9.06074 7.10352
rtibia 13.1331
rfoot -0.670742 -19.6207
rtoes -14.9144
lfemur -9.25741 3.51949 -23.7575
ltibia 29.672
lfoot -22.7712 17.0068
ltoes 6.55036
23
root -23.251 16.0162 3.50631 -177.156 0.578809 -180.306
lowerback -5.56637 0.890077 -5.83118
upperback -0.472056 1.60855 -0.3636
thorax 2.48771 0.763724 3.0179
lowerneck -0.890702 1.82701 7.74874
upperneck -14.7268 1.71477 0.303547
head -4.67725 -0.0363869 -1.29136
rclavicle 1.27626e-014 -1.27222e-014
rhumerus -28.8845 -26.9406 -80.2189
rradius 14.8239
rwrist 24.3604
rhand -13.2606 25.7545
rfingers 7.12502
rthumb 12.842 -3.83048
lclavicle 1.27626e-014 -1.27222e-014
lhumerus -28.5694 37.0656 71.7893
lradius 9.7569
lwrist -28.9639
lhand -10.5493 45.4474
lfingers 7.12502
lthumb 15.4546 74.8496
rfemur -5.31086 9.08957 7.02919
rtibia 13.3208
rfoot -0.897665 -19.6798
rtoes -14.4648
lfemur -9.26944 3.76748 -23.8275
ltibia 29.5875
lfoot -22.5985 17.0236
ltoes 6.15841
24
root -23.247 16.0151 3.50723 -177.123 0.710844 -180.307
lowerback -5.57675 0.851393 -5.84004
upperback -0.483473 1.55491 -0.303028
thorax 2.48477 0.73642 3.08188
lowerneck -0.937904 1.72596 7.58025
upperneck -14.5108 1.59889 0.456423
head -4.59345 -0.076148 -1.20368
rclavicle 1.28993e-014 7.15625e-015
rhumerus -28.9062 -27.0354 -80.0558
rradius 15.0607
rwrist 24.9806
rhand -13.1395 24.7198
rfingers 7.12502
rthumb 12.9587 -4.85773
lclavicle 1.28993e-014 7.15625e-015
lhumerus -28.8231 37.2842 71.6218
lradius 9.94345
lwrist -29.1286
lhand -12.7424 45.6905
lfingers 7.12502
lthumb 13.3415 75.2434
rfemur -5.50492 9.29025 7.03329
rtibia 13.5631
rfoot -1.12295 -19.7922
rtoes -14.1989
lfemur -9.24786 3.64806 -23.8069
ltibia 29.5145
lfoot -22.6084 16.958
ltoes 7.43895
25
root -23.243 16.0149 3.50898 -177.134 0.885942 -180.179
lowerback -5.52908 0.886862 -5.6736
upperback -0.475634 1.58586 -0.280939
thorax 2.46682 0.752831 3.01253
lowerneck -1.08551 1.58908 7.61225
upperneck -14.2679 1.41895 0.572616
head -4.48282 -0.157892 -1.16116
rclavicle 2.73391e-014 -2.46493e-014
rhumerus -28.8453 -27.3261 -79.9417
rradius 14.8176
rwrist 24.3753
rhand -13.1976 25.2838
rfingers 7.12502
rthumb 12.9027 -4.29731
lclavicle 2.73391e-014 -2.46493e-014
lhumerus -28.8859 37.3539 71.5091
lradius 9.98092
lwrist -29.2982
lhand -14.5988 45.9576
lfingers 7.12502
lthumb 11.5516 75.6192
rfemur -5.65928 9.40438 7.18413
rtibia 13.778
rfoot -1.39097 -19.7481
rtoes -14.0357
lfemur -9.20328 3.54552 -23.6596
ltibia 29.458
lfoot -22.5739 16.9629
ltoes 8.47823
26
root -23.2407 16.0112 3.51088 -177.108 1.01244 -179.964
lowerback -5.50587 0.920803 -5.42195
upperback -0.494674 1.60944 -0.228621
thorax 2.43695 0.767092 2.92636
lowerneck -0.966596 1.44474 7.67364
upperneck -14.2393 1.25733 0.740824
head -4.50348 -0.246762 -1.11034
rclavicle 6.60959e-015 -1.03368e-014
rhumerus -28.9012 -27.6897 -79.7425
rradius 14.8839
rwrist 24.7022
rhand -13.0668 25.1844
rfingers 7.12502
rthumb 13.0288 -4.38872
lclavicle 6.60959e-015 -1.03368e-014
lhumerus -28.9094 37.4192 71.4798
lradius 9.91389
lwrist -29.5114
lhand -14.8377 46.0824
lfingers 7.12502
lthumb 11.3213 75.7568
rfemur -5.88131 9.31495 7.41663
rtibia 14.0644
rfoot -1.61562 -19.6254
rtoes -14.0612
lfemur -9.21086 3.7865 -23.4499
ltibia 29.3641
lfoot -22.1613 17.1774
ltoes 7.30737
27
root -23.242 16.0096 3.51261 -177.035 1.1429 -179.879
lowerback -5.56535 0.926775 -5.27592
upperback -0.497763 1.60964 -0.189256
thorax 2.46976 0.767096 2.88665
lowerneck -0.913 1.28689 7.65864
upperneck -14.2008 1.06829 0.938809
head -4.50829 -0.347278 -1.03398
rclavicle -1.80055e-014 -7.95139e-015
rhumerus -28.7902 -27.4623 -79.8297
rradius 14.8024
rwrist 23.825
rhand -13.5882 25.8656
rfingers 7.12502
rthumb 12.5262 -3.73889
lclavicle -1.80055e-014 -7.95139e-015
lhumerus -28.9888 37.5323 71.3908
lradius 9.91352
lwrist -29.7045
lhand -14.6726 46.004
lfingers 7.12502
lthumb 11.4805 75.6696
rfemur -6.27105 8.998 7.46598
rtibia 14.5115
rfoot -1.80699 -19.2803
rtoes -14.2126
lfemur -9.22541 3.91664 -23.4024
ltibia 29.2097
lfoot -21.7917 17.3349
ltoes 6.76208
28
root -23.2442 16.0037 3.51516 -176.959 1.27631 -180.193
lowerback -5.70141 0.890751 -5.53353
upperback -0.434647 1.59188 -0.243015
thorax 2.60784 0.751343 2.97855
lowerneck -1.12721 1.1792 7.59378
upperneck -14.0027 0.914925 1.12803
head -4.3993 -0.420012 -0.950861
rclavicle -5.12336e-015 2.14687e-014
rhumerus -28.582 -27.6837 -79.7367
rradius 14.7808
rwrist 23.8586
rhand -13.3109 26.5086
rfingers 7.12502
rthumb 12.7935 -3.07937
lclavicle -5.12336e-015 2.14687e-014
lhumerus -29.0556 37.6933 71.2604
lradius 10.0009
lwrist -29.8385
lhand -14.6991 45.5917
lfingers 7.12502
lthumb 11.455 75.2587
rfemur -6.60658 8.68003 7.06239
rtibia 14.8432
rfoot -1.97663 -18.9016
rtoes -14.3577
lfemur -9.20157 3.7855 -23.7669
ltibia 29.0699
lfoot -21.558 17.4576
ltoes 6.846
29
root -23.2414 15.9959 3.51739 -176.87 1.50702 -180.51
lowerback -5.83537 0.841699 -5.88318
upperback -0.401812 1.56138 -0.244323
thorax 2.71101 0.729227 3.17484
lowerneck -1.24867 1.08842 7.4509
upperneck -13.8133 0.796465 1.29315
head -4.31009 -0.467997 -0.865025
rclavicle 2.93464e-014 -5.56597e-015
rhumerus -28.4825 -28.1422 -79.4247
rradius 14.7912
rwrist 24.3433
rhand -13.9428 24.8365
rfingers 7.12502
rthumb 12.1842 -4.78866
lclavicle 2.93464e-014 -5.56597e-015
lhumerus -28.6102 36.3585 72.2155
lradius 10.1838
lwrist -28.1672
lhand -14.9575 45.7089
lfingers 7.12502
lthumb 11.2058 75.3897
rfemur -6.89462 8.66279 6.6903
rtibia 15.0937
rfoot -2.10653 -18.7493
rtoes -14.8209
lfemur -9.23114 3.88983 -24.1174
ltibia 28.9254
lfoot -20.4095 17.8676
ltoes 3.54099
30
root -23.2394 16.0073 3.51669 -176.848 1.65248 -180.553
lowerback -5.841 0.74787 -5.99425
upperback -0.400859 1.43873 -0.135973
thorax 2.72161 0.665026 3.34045
lowerneck -1.20842 0.983402 7.22613
upperneck -13.6834 0.680731 1.47727
head -4.27366 -0.512262 -0.760077
rclavicle -6.81769e-016 -2.38542e-015
rhumerus -28.3993 -27.9916 -79.2988
rradius 14.8153
rwrist 24.2838
rhand -13.7449 25.7195
rfingers 7.12502
rthumb 12.3751 -3.8942
lclavicle -6.81769e-016 -2.38542e-015
lhumerus -28.4017 34.9863 73.0675
lradius 10.4761
lwrist -26.3869
lhand -15.1432 46.0652
lfingers 7.12502
lthumb 11.0266 75.7556
rfemur -6.64293 8.70594 6.6643
rtibia 14.4573
rfoot -1.81011 -18.5572
rtoes -15.1118
lfemur -9.46665 4.10776 -24.1713
ltibia 29.2278
lfoot -21.959 17.5784
ltoes 7.92935
31
root -23.2425 16.019 3.51872 -176.644 1.78579 -180.949
lowerback -6.04348 0.633946 -6.34095
upperback -0.428106 1.3315 -0.190911
thorax 2.81193 0.608018 3.47406
lowerneck -1.26752 0.857207 7.07991
upperneck -13.5078 0.526319 1.70423
head -4.20263 -0.581662 -0.653046
rclavicle 1.65908e-014 6.36111e-015
rhumerus -28.1982 -27.4332 -79.4845
rradius 14.92
rwrist 23.8426
rhand -14.0008 25.3776
rfingers 7.12502
rthumb 12.1283 -4.25083
lclavicle 1.65908e-014 6.36111e-015
lhumerus -28.4982 35.2426 72.9821
lradius 10.5146
lwrist -26.4532
lhand -15.0601 46.2526
lfingers 7.12502
lthumb 11.1068 75.9387
rfemur -7.02382 8.25394 6.16298
rtibia 14.6183
rfoot -2.01246 -18.1068
rtoes -14.9499
lfemur -9.7171 4.10714 -24.6577
ltibia 29.1705
lfoot -20.9315 17.4593
ltoes 7.98007
32
root -23.1747 16.0182 3.49347 -178.398 1.60877 -176.897
lowerback -4.52025 0.713401 -3.06082
upperback 0.191615 1.09233 1.15582
thorax 2.65322 0.49849 2.98325
lowerneck -1.40788 0.718641 6.957
upperneck -13.2785 0.34923 1.98868
head -4.0969 -0.664676 -0.530626
rclavicle 2.15674e-015 -1.27222e-014
rhumerus -27.9304 -26.71 -79.8124
rradius 14.9918
rwrist 23.2946
rhand -14.2539 24.916
rfingers 7.12502
rthumb 11.8843 -4.72667
lclavicle 2.15674e-015 -1.27222e-014
lhumerus -27.3664 34.1141 74.3372
lradius 9.92031
lwrist -24.9246
lhand -15.1966 46.9481
lfingers 7.12502
lthumb 10.9751 76.6412
rfemur -4.70795 11.4731 11.4749
rtibia 14.5266
rfoot -1.68242 -20.9369
rtoes -13.151
lfemur -7.68035 4.43023 -19.6441
ltibia 29.3054
lfoot -22.1831 17.164
ltoes 8.02359
33
root -23.2586 16.0001 3.53584 -176.902 2.17166 -180.621
lowerback -5.59936 0.596838 -5.55115
upperback -0.31217 1.18856 -0.127036
thorax 2.71137 0.541342 3.07811
lowerneck -1.35763 0.658339 6.89595
upperneck -13.2296 0.286918 2.17929
head -4.09034 -0.700098 -0.454278
rclavicle -1.97729e-014 2.06736e-014
rhumerus -27.7371 -26.1071 -80.0412
rradius 15.0535
rwrist 22.6259
rhand -13.8688 25.0435
rfingers 7.12502
rthumb 12.2556 -4.57742
lclavicle -1.97729e-014 2.06736e-014
lhumerus -27.8729 32.466 74.4375
lradius 10.9197
lwrist -23.208
lhand -14.7927 46.3104
lfingers 7.12502
lthumb 11.3647 75.9824
rfemur -7.04141 7.39871 6.44717
rtibia 14.7003
rfoot -2.20964 -16.8748
rtoes -15.3903
lfemur -9.39571 3.97605 -24.3947
ltibia 29.127
lfoot -21.6306 18.2089
ltoes 8.14381
34
root -23.2463 16.0047 3.53392 -176.889 2.29809 -180.791
lowerback -5.66082 0.5116 -5.87274
upperback -0.273481 1.10178 -0.121562
thorax 2.78845 0.491444 3.25944
lowerneck -1.21673 0.629333 6.92271
upperneck -13.2406 0.274207 2.33415
head -4.12229 -0.717306 -0.406538
rclavicle 5.77718e-015 -7.55382e-015
rhumerus -27.5746 -25.4851 -80.276
rradius 15.1433
rwrist 22.0697
rhand -14.0371 25.2383
rfingers 7.12502
rthumb 12.0933 -4.39225
lclavicle 5.77718e-015 -7.55382e-015
lhumerus -27.3102 28.8946 76.1501
lradius 11.4797
lwrist -19.442
lhand -14.2477 46.5975
lfingers 7.12502
lthumb 11.8903 76.2398
rfemur -7.17352 7.93165 6.29851
rtibia 14.832
rfoot -2.12983 -17.2902
rtoes -14.877
lfemur -9.4062 3.80276 -24.5517
ltibia 29.0926
lfoot -21.6625 18.3806
ltoes 9.32259
35
root -23.2407 16.0087 3.53445 -176.79 2.38223 -180.896
lowerback -5.79324 0.447636 -6.02822
upperback -0.252382 1.03817 -0.12722
thorax 2.88868 0.454828 3.33859
lowerneck -1.23405 0.533414 6.9852
upperneck -13.1135 0.158302 2.51941
head -4.07641 -0.780835 -0.352216
rclavicle 4.04092e-015 -1.78906e-014
rhumerus -27.3185 -24.7504 -80.5194
rradius 15.3527
rwrist 21.0189
rhand -13.5784 24.4974
rfingers 7.12502
rthumb 12.5356 -5.10654
lclavicle 4.04092e-015 -1.78906e-014
lhumerus -27.2128 28.1968 76.4672
lradius 11.6884
lwrist -18.6796
lhand -12.5751 46.1459
lfingers 7.12502
lthumb 13.5028 75.6881
rfemur -7.73906 7.96195 6.19863
rtibia 15.7487
rfoot -2.56391 -17.4742
rtoes -15.1721
lfemur -9.32722 3.64115 -24.6653
ltibia 28.6564
lfoot -21.3792 18.5226
ltoes 9.95688
36
root -23.2461 16.0096 3.53868 -176.738 2.6143 -180.801
lowerback -5.79595 0.473115 -5.8012
upperback -0.231003 1.05538 -0.115241
thorax 2.91405 0.46415 3.22506
lowerneck -1.31781 -0.866418 7.09909
upperneck -12.9162 0.340153 2.92158
head -4.0215 0.135073 -0.303017
rclavicle -2.92586e-015 -1.19271e-015
rhumerus -27.1896 -24.484 -80.6218
rradius 15.5254
rwrist 20.9429
rhand -14.0675 23.7729
rfingers 7.12502
rthumb 12.064 -5.85935
lclavicle -2.92586e-015 -1.19271e-015
lhumerus -27.492 30.6058 75.3575
lradius 11.2948
lwrist -21.2638
lhand -11.3529 45.3798
lfingers 7.12502
lthumb 14.6805 74.8401
rfemur -7.87246 7.59125 6.2686
rtibia 15.7139
rfoot -2.71935 -16.9246
rtoes -15.6841
lfemur -9.39094 3.60527 -24.6124
ltibia 28.6804
lfoot -21.2601 18.787
ltoes 10.059
